<svg xmlns="http://www.w3.org/2000/svg" viewBox="0 0 1200 630" width="1200" height="630">
  <defs>
    <linearGradient id="bg3" x1="0%" y1="0%" x2="100%" y2="100%">
      <stop offset="0%" stop-color="#090c11"/>
      <stop offset="100%" stop-color="#0e1420"/>
    </linearGradient>
  </defs>
  <rect width="1200" height="630" fill="url(#bg3)"/>
  <g opacity="0.9">
    <rect x="90" y="90" width="420" height="240" rx="16" fill="#131a26" stroke="#212a3a" stroke-width="2"/>
    <rect x="130" y="130" width="200" height="18" rx="9" fill="#2dd4ee" opacity="0.7"/>
    <rect x="130" y="166" width="320" height="12" rx="6" fill="#3c4453"/>
    <rect x="130" y="192" width="260" height="12" rx="6" fill="#3c4453"/>
    <rect x="130" y="260" width="110" height="36" rx="8" fill="#2dd4ee" opacity="0.85"/>
    <rect x="260" y="260" width="110" height="36" rx="8" fill="none" stroke="#3c4453" stroke-width="2"/>
  </g>
  <g opacity="0.9">
    <rect x="620" y="260" width="480" height="290" rx="16" fill="#131a26" stroke="#212a3a" stroke-width="2"/>
    <line x1="660" y1="320" x2="1080" y2="320" stroke="#3c4453" stroke-width="10"/>
    <line x1="660" y1="360" x2="980" y2="360" stroke="#3c4453" stroke-width="10"/>
    <line x1="660" y1="400" x2="1040" y2="400" stroke="#818cf8" stroke-width="10" opacity="0.7"/>
    <line x1="660" y1="440" x2="920" y2="440" stroke="#3c4453" stroke-width="10"/>
    <circle cx="1000" cy="490" r="26" fill="none" stroke="#2dd4ee" stroke-width="4"/>
    <path d="M 990 490 l 7 7 l 15 -15" fill="none" stroke="#2dd4ee" stroke-width="4" stroke-linecap="round" stroke-linejoin="round"/>
  </g>
  <g fill="none" stroke="#2dd4ee" stroke-width="2" stroke-dasharray="6 8" opacity="0.5">
    <path d="M 510 210 C 560 210, 570 230, 620 300"/>
  </g>
</svg>
